# xmcd
# Copyright (C) 1995-1998 Ti Kan
#
# Track frame offsets:
#       150
#       19707
#       48543
#       84212
#       111820
#       131898
#       141986
#
# Disc length: 2440 seconds
#
# Revision: 1
# Processed by: cddbd v1.5.1PL0 Copyright (c) Steve Scherf et al.
# Submitted via: CD-Transfer v1.0
#
DISCID=5b098607
DTITLE=Sonic Youth - Murray Street
DYEAR=1900
DGENRE=
TTITLE0=The Empty Page
TTITLE1=Disconnection Notice
TTITLE2=Rain On Tin
TTITLE3=Karen Revisited
TTITLE4=Radical Adults Lick Godhead Style
TTITLE5=Plastic Sun
TTITLE6=Sympathy For The Strawberry
EXTD=
EXTT0=
EXTT1=
EXTT2=
EXTT3=
EXTT4=
EXTT5=
EXTT6=
PLAYORDER=
